{"glyphs":{"0":{"ha":908,"x_min":81,"x_max":826,"o":"m 454 978 q 642 938 557 978 q 776 828 728 897 q 825 674 825 758 l 825 361 l 724 361 l 724 635 l 617 635 l 617 674 q 596 718 617 696 q 537 755 575 740 q 454 769 499 769 q 372 755 410 769 q 313 718 333 740 q 292 674 292 696 l 292 361 l 192 361 l 192 635 l 82 635 l 82 674 q 190 890 82 801 q 454 978 297 978 m 686 596 l 686 322 l 825 322 l 825 283 q 717 67 825 156 q 453 -21 610 -21 q 190 67 297 -21 q 82 283 82 156 l 82 596 l 153 596 l 153 322 l 292 322 l 292 283 q 339 219 292 249 q 453 189 386 189 q 569 219 521 189 q 617 283 617 249 l 617 596 l 686 596 z "},"1":{"ha":493,"x_min":44,"x_max":400,"o":"m 190 969 l 400 969 l 400 447 l 294 447 l 294 719 l 44 719 l 190 969 m 257 682 l 257 408 l 400 408 l 400 -1 l 190 -1 l 190 682 l 257 682 z "},"2":{"ha":844,"x_min":67,"x_max":789,"o":"m 249 232 l 206 193 l 746 193 l 746 -15 l 68 -15 l 68 186 l 188 294 q 431 474 264 365 l 469 499 q 558 633 551 553 l 649 633 q 611 519 644 574 q 519 428 578 465 q 481 403 506 418 q 249 232 319 297 m 556 683 q 515 744 544 721 q 446 769 486 767 l 68 769 l 68 979 l 454 979 q 646 908 564 974 q 757 739 728 843 q 742 510 789 622 q 583 324 694 397 l 546 299 q 443 231 481 257 l 304 231 q 501 371 367 282 q 540 396 521 383 q 649 510 611 443 q 686 653 688 578 l 686 671 l 558 671 q 556 683 557 678 z "},"3":{"ha":854,"x_min":68,"x_max":764,"o":"m 600 976 q 716 928 668 976 q 764 813 764 881 l 764 282 l 690 282 l 690 622 l 554 622 l 554 768 l 69 768 l 69 976 l 600 976 m 653 585 l 653 244 l 764 244 l 764 153 q 741 67 764 107 q 679 5 718 28 q 593 -18 640 -18 l 69 -18 l 69 192 l 554 192 l 554 374 l 203 374 l 203 585 l 653 585 z "},"4":{"ha":843,"x_min":71,"x_max":750,"o":"m 281 975 l 281 446 l 501 394 l 501 335 l 71 435 l 71 975 l 281 975 m 540 969 l 750 969 l 750 -1 l 540 -1 l 540 326 l 539 326 l 539 425 l 318 476 l 318 593 l 540 540 l 540 969 z "},"5":{"ha":900,"x_min":76,"x_max":825,"o":"m 614 333 q 581 401 608 374 q 519 429 554 429 l 78 429 l 144 961 l 801 961 l 801 753 l 329 753 l 297 514 l 519 514 q 642 462 590 514 q 700 333 693 410 l 614 333 m 519 638 q 735 543 646 638 q 824 314 824 449 q 735 84 824 179 q 519 -11 646 -11 l 82 -11 l 82 199 l 519 199 q 563 211 543 199 q 597 246 583 224 q 614 294 610 268 l 739 294 l 739 314 q 674 483 739 413 q 519 553 610 553 l 340 553 l 351 638 l 519 638 z "},"6":{"ha":885,"x_min":76,"x_max":810,"o":"m 504 638 q 719 543 631 638 q 808 314 808 449 q 719 84 808 179 q 504 -11 631 -11 l 344 -11 q 155 68 233 -11 q 76 257 76 147 l 78 546 q 234 842 100 724 q 547 961 368 961 l 786 961 l 786 753 l 547 753 q 424 722 481 753 q 329 638 367 690 l 331 638 l 331 514 l 504 514 q 544 510 525 514 q 580 497 563 506 q 613 475 597 488 q 640 447 628 463 q 661 414 651 432 q 676 375 671 396 q 685 333 682 354 l 599 333 q 566 401 593 374 q 504 429 539 429 l 344 429 q 303 412 319 429 q 286 369 286 394 l 286 257 q 303 216 286 233 q 344 199 319 199 l 504 199 q 566 226 539 199 q 599 294 593 254 l 724 294 l 724 314 q 659 483 724 413 q 504 553 594 553 l 368 553 l 368 638 l 504 638 z "},"7":{"ha":742,"x_min":57,"x_max":690,"o":"m 569 714 l 413 407 l 511 407 l 301 -1 l 68 -1 l 436 714 l 569 714 m 57 961 l 689 961 l 689 753 l 531 444 l 475 444 l 632 753 l 57 753 l 57 961 z "},"8":{"ha":913,"x_min":85,"x_max":828,"o":"m 703 332 l 703 239 l 826 239 l 826 219 q 757 51 826 121 q 590 -18 688 -18 l 321 -18 q 154 51 224 -18 q 85 219 85 121 l 85 332 q 132 478 85 413 q 85 622 85 543 l 85 679 l 171 679 l 171 622 q 194 539 171 578 q 218 510 204 524 l 218 508 q 231 497 224 503 q 233 496 232 496 q 247 486 240 490 q 249 485 247 485 q 264 476 256 481 l 265 476 l 267 475 q 281 469 274 472 q 286 468 282 469 q 299 465 293 467 q 304 464 304 464 q 322 463 314 463 l 322 461 l 574 461 q 589 460 581 461 l 589 460 q 593 460 590 460 q 606 457 599 458 q 608 456 608 456 q 622 451 617 454 l 624 451 q 638 444 631 449 q 639 443 639 443 q 650 436 644 440 q 651 435 650 435 q 668 419 660 429 q 669 419 668 419 q 671 417 669 418 q 683 400 678 408 q 683 399 683 399 q 703 332 703 368 m 618 219 l 618 332 q 605 363 618 350 q 574 375 592 375 l 338 375 q 307 363 319 375 q 294 332 294 350 l 294 219 q 298 205 294 211 q 308 195 301 199 q 321 192 314 192 l 590 192 q 610 200 601 192 q 618 219 618 208 m 826 736 l 826 622 q 779 478 826 543 q 826 332 826 413 l 826 276 l 742 276 l 742 332 q 717 418 742 378 q 694 447 707 433 q 693 449 694 447 q 681 460 688 454 q 678 463 679 461 q 664 472 671 468 q 647 482 656 478 q 646 483 646 482 q 644 483 644 483 q 631 489 638 486 q 625 490 629 489 q 613 494 619 493 q 607 496 608 496 q 589 499 597 497 l 589 500 l 332 500 q 322 500 329 500 q 319 500 322 500 q 317 500 318 500 q 313 501 315 500 q 301 503 307 503 q 297 504 299 504 q 285 508 290 507 q 271 515 278 511 l 269 517 q 258 524 264 519 q 257 525 257 525 q 242 539 250 531 q 241 540 242 539 q 239 542 240 540 q 228 558 232 549 q 226 558 228 558 l 226 558 q 208 622 208 589 l 208 718 l 85 718 l 85 736 q 117 857 85 801 q 204 944 149 913 q 325 976 260 976 l 588 976 q 756 906 686 976 q 826 736 826 836 m 618 622 l 618 736 q 614 752 618 744 q 602 764 610 760 q 586 768 594 768 l 325 768 q 303 759 313 768 q 294 736 294 750 l 294 622 q 306 596 294 607 q 332 585 317 585 l 581 585 q 607 596 596 585 q 618 622 618 607 z "},"9":{"ha":883,"x_min":75,"x_max":807,"o":"m 539 961 q 673 926 611 961 q 771 828 735 890 q 807 693 807 767 l 806 404 q 649 108 783 228 q 336 -11 514 -11 l 97 -11 l 97 199 l 336 199 q 459 230 401 199 q 554 314 517 261 l 379 313 q 169 401 257 313 q 75 618 82 490 l 160 618 q 230 463 167 526 q 379 399 293 399 l 553 399 l 553 524 q 585 545 572 529 q 597 581 597 561 l 597 693 q 580 735 597 718 q 539 753 563 753 l 379 753 q 311 719 339 753 q 283 638 283 685 q 311 556 283 590 q 379 522 339 522 l 515 522 l 515 436 l 379 436 q 251 495 304 436 q 197 638 197 554 l 197 657 l 75 657 q 169 873 82 785 q 379 961 257 961 l 539 961 z "},"\u0000":{"ha":0,"x_min":0,"x_max":0,"o":""},"\n":{"ha":0,"x_min":0,"x_max":0,"o":""},"\r":{"ha":0,"x_min":0,"x_max":0,"o":""}," ":{"ha":454,"x_min":0,"x_max":0,"o":""},"!":{"ha":393,"x_min":92,"x_max":301,"o":"m 92 969 l 301 969 l 301 358 l 196 358 l 196 221 l 92 221 l 92 969 m 235 129 l 235 254 l 301 254 l 301 1 l 92 1 l 92 129 l 235 129 z "},"\"":{"ha":307,"x_min":25,"x_max":282,"o":"m 25 921 l 25 1029 l 133 1029 l 133 921 l 56 822 l 69 921 l 25 921 m 174 1029 l 282 1029 l 282 921 l 204 822 l 218 921 l 174 921 l 174 1029 z "},"“":{"ha":307,"x_min":25,"x_max":282,"o":"m 25 921 l 25 1029 l 133 1029 l 133 921 l 56 822 l 69 921 l 25 921 m 174 1029 l 282 1029 l 282 921 l 204 822 l 218 921 l 174 921 l 174 1029 z "},"”":{"ha":307,"x_min":25,"x_max":282,"o":"m 25 921 l 25 1029 l 133 1029 l 133 921 l 56 822 l 69 921 l 25 921 m 174 1029 l 282 1029 l 282 921 l 204 822 l 218 921 l 174 921 l 174 1029 z "},"#":{"ha":1201,"x_min":46,"x_max":1154,"o":"m 932 707 l 1154 707 l 1113 574 l 738 574 l 779 707 l 863 972 l 1015 972 l 932 707 m 874 524 l 836 400 l 1056 400 l 1014 267 l 794 267 l 711 1 l 557 1 l 640 267 l 442 267 l 360 1 l 206 1 l 289 267 l 46 267 l 88 400 l 331 400 l 385 574 l 144 574 l 186 707 l 426 707 l 510 972 l 664 972 l 581 707 l 722 707 l 681 574 l 539 574 l 483 400 l 682 400 l 721 524 l 874 524 z "},"$":{"ha":767,"x_min":78,"x_max":689,"o":"m 493 571 q 631 506 575 565 q 688 363 688 446 l 688 271 q 631 133 688 190 q 493 76 574 76 l 450 76 l 450 1 l 317 1 l 317 76 l 89 76 l 89 247 l 317 247 l 317 400 l 274 400 l 274 401 q 135 463 192 404 q 78 603 78 521 l 78 697 q 135 837 78 779 q 275 894 193 894 l 317 894 l 317 972 l 450 972 l 450 894 l 678 894 l 678 724 l 450 724 l 450 572 l 493 572 l 493 571 m 281 572 l 317 572 l 317 724 l 275 724 q 256 716 264 724 q 249 697 249 708 l 249 603 q 258 581 249 590 q 281 572 268 572 m 517 271 l 517 363 q 506 389 517 378 q 481 400 496 400 l 450 400 l 450 247 l 493 247 q 510 254 503 247 q 517 271 517 261 z "},"%":{"ha":853,"x_min":53,"x_max":799,"o":"m 529 972 l 760 972 l 322 1 l 92 1 l 529 972 m 690 207 l 797 207 l 797 0 l 551 0 l 551 326 l 690 207 m 300 628 l 163 765 l 54 765 l 54 972 l 300 972 l 300 628 z "},"&":{"ha":985,"x_min":67,"x_max":922,"o":"m 500 572 l 500 571 l 921 571 l 921 400 l 799 400 l 739 22 l 261 22 q 124 85 181 22 q 67 235 67 147 l 67 343 q 101 468 67 411 q 190 551 135 525 q 179 622 179 586 l 179 732 q 238 885 179 822 q 376 949 296 949 l 865 949 l 865 640 l 693 640 l 693 776 l 376 776 q 360 764 368 776 q 351 732 351 751 l 351 622 q 356 597 351 608 q 368 578 361 585 q 382 572 375 572 l 500 572 m 593 193 l 626 400 l 275 400 q 249 383 261 400 q 238 343 238 367 l 238 235 q 245 206 238 218 q 261 193 253 193 l 593 193 z "},"'":{"ha":158,"x_min":25,"x_max":133,"o":"m 25 1029 l 133 1029 l 133 921 l 56 822 l 69 921 l 25 921 l 25 1029 z "},"‘":{"ha":158,"x_min":25,"x_max":133,"o":"m 25 1029 l 133 1029 l 133 921 l 56 822 l 69 921 l 25 921 l 25 1029 z "},"’":{"ha":158,"x_min":25,"x_max":133,"o":"m 25 1029 l 133 1029 l 133 921 l 56 822 l 69 921 l 25 921 l 25 1029 z "},"(":{"ha":531,"x_min":93,"x_max":494,"o":"m 281 972 q 247 930 265 965 q 226 836 228 894 l 226 118 q 240 30 226 63 q 276 -3 254 -3 l 493 -3 l 493 -136 l 276 -136 q 245 -133 261 -136 q 200 -116 229 -131 q 149 -76 171 -101 q 110 -1 128 -51 q 93 118 93 50 l 93 839 q 153 1032 97 958 q 278 1106 208 1106 l 493 1106 l 493 972 l 281 972 z "},")":{"ha":531,"x_min":36,"x_max":438,"o":"m 436 839 l 436 836 l 436 118 q 425 16 436 61 q 395 -56 414 -29 q 356 -100 376 -82 q 314 -125 336 -118 q 278 -134 292 -132 q 254 -136 265 -136 l 36 -136 l 36 -3 l 254 -3 q 279 12 268 -3 q 297 54 290 26 q 304 118 303 82 l 304 835 q 283 930 301 894 q 249 972 265 965 l 36 972 l 36 1106 l 253 1106 q 337 1074 296 1106 q 406 981 378 1043 q 436 839 435 918 z "},"*":{"ha":842,"x_min":57,"x_max":789,"o":"m 356 600 l 356 365 l 125 228 l 57 343 l 293 483 l 57 622 l 125 738 l 356 600 m 553 483 l 789 343 l 721 228 l 489 365 l 489 97 l 356 97 l 356 365 l 422 406 l 489 444 l 553 483 m 546 542 l 481 501 l 414 463 l 414 871 l 546 871 l 546 697 l 696 786 l 764 671 l 610 579 l 546 542 z "},"+":{"ha":519,"x_min":40,"x_max":479,"o":"m 306 400 l 478 400 l 478 306 l 306 306 l 306 133 l 213 133 l 213 306 l 40 306 l 40 400 l 213 400 l 213 572 l 306 572 l 306 400 z "},",":{"ha":156,"x_min":24,"x_max":132,"o":"m 24 108 l 132 108 l 132 1 l 54 -97 l 68 1 l 24 1 l 24 108 z "},"-":{"ha":478,"x_min":19,"x_max":458,"o":"m 457 306 l 19 306 l 19 400 l 457 400 l 457 306 z "},".":{"ha":153,"x_min":22,"x_max":131,"o":"m 131 1 l 22 1 l 22 108 l 131 108 l 131 1 z "},"/":{"ha":585,"x_min":21,"x_max":571,"o":"m 439 1011 l 571 1011 l 151 -35 l 21 -35 l 439 1011 z "},":":{"ha":183,"x_min":38,"x_max":146,"o":"m 146 446 l 38 446 l 38 553 l 146 553 l 146 446 m 146 167 l 38 167 l 38 274 l 146 274 l 146 167 z "},";":{"ha":201,"x_min":46,"x_max":156,"o":"m 154 447 l 47 447 l 47 556 l 154 556 l 154 447 m 154 276 l 154 276 l 154 168 l 153 168 l 76 71 l 90 168 l 47 168 l 46 168 l 46 276 l 154 276 z "},"<":{"ha":497,"x_min":31,"x_max":451,"o":"m 451 438 l 300 351 l 451 265 l 385 150 l 229 239 l 165 275 l 97 314 l 31 353 l 211 454 l 235 468 l 386 553 l 451 438 z "},"=":{"ha":503,"x_min":32,"x_max":471,"o":"m 469 396 l 32 396 l 32 504 l 469 504 l 469 396 m 469 267 l 32 267 l 32 333 l 469 333 l 469 267 z "},">":{"ha":497,"x_min":46,"x_max":467,"o":"m 286 454 l 467 353 l 400 314 l 332 275 l 268 239 l 113 150 l 46 265 l 197 351 l 46 438 l 111 553 l 263 468 l 286 454 z "},"?":{"ha":817,"x_min":56,"x_max":776,"o":"m 207 122 l 350 122 l 350 0 l 140 0 l 140 257 l 207 257 l 207 122 m 744 736 q 729 508 776 621 q 571 322 682 394 q 533 296 557 313 q 415 217 457 247 l 246 217 l 246 351 q 418 472 304 397 l 457 497 q 535 586 515 536 q 543 681 556 636 q 503 742 532 719 q 433 767 475 765 l 56 767 l 56 976 l 442 976 q 634 906 551 971 q 744 736 717 840 z "},"@":{"ha":983,"x_min":76,"x_max":899,"o":"m 486 675 l 694 675 l 694 388 l 764 388 l 764 760 l 482 760 q 290 680 369 760 q 210 488 210 600 l 210 181 l 889 181 l 889 47 l 76 47 l 76 488 q 195 774 76 656 q 482 893 314 893 l 897 893 l 897 254 l 279 254 l 279 469 q 340 615 279 554 q 486 675 400 675 m 561 388 l 561 542 l 486 542 q 434 521 456 542 q 413 469 413 500 l 413 388 l 561 388 z "},"A":{"ha":894,"x_min":6,"x_max":867,"o":"m 513 531 l 457 414 l 228 414 l 513 1032 l 865 264 l 426 264 l 457 329 l 604 329 l 513 531 m 808 206 l 865 81 l 674 -3 l 643 64 l 267 64 l 236 -3 l 6 -3 l 171 357 l 400 357 l 331 206 l 808 206 z "},"À":{"ha":894,"x_min":6,"x_max":867,"o":"m 513 531 l 457 414 l 228 414 l 513 1032 l 865 264 l 426 264 l 457 329 l 604 329 l 513 531 m 808 206 l 865 81 l 674 -3 l 643 64 l 267 64 l 236 -3 l 6 -3 l 171 357 l 400 357 l 331 206 l 808 206 z "},"Á":{"ha":894,"x_min":6,"x_max":867,"o":"m 513 531 l 457 414 l 228 414 l 513 1032 l 865 264 l 426 264 l 457 329 l 604 329 l 513 531 m 808 206 l 865 81 l 674 -3 l 643 64 l 267 64 l 236 -3 l 6 -3 l 171 357 l 400 357 l 331 206 l 808 206 z "},"Â":{"ha":894,"x_min":6,"x_max":867,"o":"m 513 531 l 457 414 l 228 414 l 513 1032 l 865 264 l 426 264 l 457 329 l 604 329 l 513 531 m 808 206 l 865 81 l 674 -3 l 643 64 l 267 64 l 236 -3 l 6 -3 l 171 357 l 400 357 l 331 206 l 808 206 z "},"Ã":{"ha":894,"x_min":6,"x_max":867,"o":"m 513 531 l 457 414 l 228 414 l 513 1032 l 865 264 l 426 264 l 457 329 l 604 329 l 513 531 m 808 206 l 865 81 l 674 -3 l 643 64 l 267 64 l 236 -3 l 6 -3 l 171 357 l 400 357 l 331 206 l 808 206 z "},"Ä":{"ha":894,"x_min":6,"x_max":867,"o":"m 513 531 l 457 414 l 228 414 l 513 1032 l 865 264 l 426 264 l 457 329 l 604 329 l 513 531 m 808 206 l 865 81 l 674 -3 l 643 64 l 267 64 l 236 -3 l 6 -3 l 171 357 l 400 357 l 331 206 l 808 206 z "},"Å":{"ha":894,"x_min":6,"x_max":867,"o":"m 513 531 l 457 414 l 228 414 l 513 1032 l 865 264 l 426 264 l 457 329 l 604 329 l 513 531 m 808 206 l 865 81 l 674 -3 l 643 64 l 267 64 l 236 -3 l 6 -3 l 171 357 l 400 357 l 331 206 l 808 206 z "},"B":{"ha":963,"x_min":92,"x_max":913,"o":"m 815 565 q 913 343 913 475 q 823 127 913 217 q 608 38 733 38 l 499 38 l 499 179 l 360 179 l 360 247 l 607 247 q 674 275 646 247 q 703 342 703 303 q 674 410 703 382 q 607 438 646 438 l 301 438 l 301 122 l 443 122 l 443 0 l 92 0 l 92 914 l 235 914 l 235 647 l 588 647 q 628 664 611 647 q 644 704 644 681 q 628 744 644 728 q 588 761 611 761 l 358 761 l 358 704 l 292 704 l 292 971 l 588 971 q 722 935 660 971 q 819 838 783 899 q 854 704 854 776 q 815 565 854 629 z "},"C":{"ha":917,"x_min":32,"x_max":893,"o":"m 143 504 l 143 533 l 81 533 q 221 838 92 711 q 531 969 350 964 q 863 843 722 975 q 892 814 878 829 l 736 675 q 546 761 660 761 q 364 685 439 761 q 289 504 289 610 q 329 367 289 429 l 215 275 q 167 371 185 319 q 143 504 143 435 m 546 206 q 733 271 650 206 l 867 104 q 547 -8 728 -8 q 459 -1 503 -8 q 374 22 415 7 q 293 58 332 36 q 219 108 254 79 q 154 172 183 138 q 33 475 43 303 l 88 475 q 113 351 92 411 q 189 215 139 276 l 207 193 l 332 294 l 342 285 q 546 206 428 206 z "},"Ç":{"ha":917,"x_min":32,"x_max":893,"o":"m 143 504 l 143 533 l 81 533 q 221 838 92 711 q 531 969 350 964 q 863 843 722 975 q 892 814 878 829 l 736 675 q 546 761 660 761 q 364 685 439 761 q 289 504 289 610 q 329 367 289 429 l 215 275 q 167 371 185 319 q 143 504 143 435 m 546 206 q 733 271 650 206 l 867 104 q 547 -8 728 -8 q 459 -1 503 -8 q 374 22 415 7 q 293 58 332 36 q 219 108 254 79 q 154 172 183 138 q 33 475 43 303 l 88 475 q 113 351 92 411 q 189 215 139 276 l 207 193 l 332 294 l 342 285 q 546 206 428 206 z "},"D":{"ha":968,"x_min":88,"x_max":922,"o":"m 781 860 q 884 704 847 793 q 921 518 921 615 q 863 285 921 392 q 703 115 804 178 q 485 53 603 53 l 356 53 l 356 261 l 483 261 q 644 338 576 261 q 711 518 711 414 q 633 711 711 633 q 485 775 568 775 l 356 775 l 356 471 l 226 471 l 226 901 l 146 901 l 146 983 l 483 983 q 781 860 654 983 m 169 844 l 169 413 l 299 413 l 299 -7 l 89 -7 l 89 844 l 169 844 z "},"E":{"ha":879,"x_min":72,"x_max":821,"o":"m 282 329 l 282 211 l 764 211 l 764 1 l 72 1 l 72 519 l 133 519 l 133 397 l 325 397 l 325 329 l 282 329 m 821 763 l 339 763 l 339 596 l 819 596 l 738 389 l 736 388 l 382 388 l 382 454 l 190 454 l 190 576 l 129 576 l 129 972 l 821 972 l 821 763 z "},"È":{"ha":879,"x_min":72,"x_max":821,"o":"m 282 329 l 282 211 l 764 211 l 764 1 l 72 1 l 72 519 l 133 519 l 133 397 l 325 397 l 325 329 l 282 329 m 821 763 l 339 763 l 339 596 l 819 596 l 738 389 l 736 388 l 382 388 l 382 454 l 190 454 l 190 576 l 129 576 l 129 972 l 821 972 l 821 763 z "},"É":{"ha":879,"x_min":72,"x_max":821,"o":"m 282 329 l 282 211 l 764 211 l 764 1 l 72 1 l 72 519 l 133 519 l 133 397 l 325 397 l 325 329 l 282 329 m 821 763 l 339 763 l 339 596 l 819 596 l 738 389 l 736 388 l 382 388 l 382 454 l 190 454 l 190 576 l 129 576 l 129 972 l 821 972 l 821 763 z "},"Ê":{"ha":879,"x_min":72,"x_max":821,"o":"m 282 329 l 282 211 l 764 211 l 764 1 l 72 1 l 72 519 l 133 519 l 133 397 l 325 397 l 325 329 l 282 329 m 821 763 l 339 763 l 339 596 l 819 596 l 738 389 l 736 388 l 382 388 l 382 454 l 190 454 l 190 576 l 129 576 l 129 972 l 821 972 l 821 763 z "},"Ë":{"ha":879,"x_min":72,"x_max":821,"o":"m 282 329 l 282 211 l 764 211 l 764 1 l 72 1 l 72 519 l 133 519 l 133 397 l 325 397 l 325 329 l 282 329 m 821 763 l 339 763 l 339 596 l 819 596 l 738 389 l 736 388 l 382 388 l 382 454 l 190 454 l 190 576 l 129 576 l 129 972 l 821 972 l 821 763 z "},"F":{"ha":858,"x_min":88,"x_max":840,"o":"m 224 844 l 224 485 l 682 483 l 599 274 l 297 274 l 297 0 l 88 0 l 88 844 l 224 844 m 150 968 l 839 968 l 839 760 l 354 760 l 354 542 l 281 542 l 281 903 l 144 903 l 144 967 l 150 967 l 150 968 z "},"G":{"ha":1018,"x_min":22,"x_max":978,"o":"m 531 265 q 638 292 589 265 q 717 367 686 319 l 553 367 l 628 557 l 938 556 l 936 365 l 792 365 q 732 281 769 318 q 532 199 649 199 l 493 199 l 493 265 l 524 265 q 531 265 528 265 m 828 293 l 978 294 q 826 100 926 176 q 533 0 696 0 q 467 4 500 0 q 287 66 369 18 q 144 190 204 114 q 50 550 24 350 q 112 730 64 647 q 236 871 160 813 q 469 967 340 951 q 717 934 597 983 q 917 781 838 885 l 751 653 q 567 758 682 743 q 363 705 453 774 q 258 522 274 636 q 311 318 243 408 q 457 219 367 244 l 458 140 l 463 139 l 500 136 q 535 133 517 133 q 703 176 625 133 q 828 293 781 219 z "},"H":{"ha":1040,"x_min":93,"x_max":947,"o":"m 407 568 l 407 486 l 679 486 l 679 358 l 303 358 l 303 -3 l 93 -3 l 93 929 l 303 929 l 303 568 l 407 568 m 946 967 l 947 967 l 947 -1 l 738 89 l 736 543 l 464 543 l 464 625 l 738 625 l 738 967 l 946 967 z "},"I":{"ha":417,"x_min":79,"x_max":347,"o":"m 138 971 l 347 971 l 347 533 l 290 533 l 290 799 l 138 799 l 138 971 m 233 742 l 233 475 l 290 475 l 290 1 l 81 92 l 81 742 l 233 742 z "},"Ì":{"ha":417,"x_min":79,"x_max":347,"o":"m 138 971 l 347 971 l 347 533 l 290 533 l 290 799 l 138 799 l 138 971 m 233 742 l 233 475 l 290 475 l 290 1 l 81 92 l 81 742 l 233 742 z "},"Í":{"ha":417,"x_min":79,"x_max":347,"o":"m 138 971 l 347 971 l 347 533 l 290 533 l 290 799 l 138 799 l 138 971 m 233 742 l 233 475 l 290 475 l 290 1 l 81 92 l 81 742 l 233 742 z "},"Î":{"ha":417,"x_min":79,"x_max":347,"o":"m 138 971 l 347 971 l 347 533 l 290 533 l 290 799 l 138 799 l 138 971 m 233 742 l 233 475 l 290 475 l 290 1 l 81 92 l 81 742 l 233 742 z "},"Ï":{"ha":417,"x_min":79,"x_max":347,"o":"m 138 971 l 347 971 l 347 533 l 290 533 l 290 799 l 138 799 l 138 971 m 233 742 l 233 475 l 290 475 l 290 1 l 81 92 l 81 742 l 233 742 z "},"J":{"ha":846,"x_min":3,"x_max":789,"o":"m 664 765 l 664 440 l 731 440 l 731 428 q 674 213 731 311 q 521 57 617 115 l 521 57 q 297 -6 418 -6 q 3 111 128 -6 l 4 113 l 236 213 q 297 204 267 204 q 456 269 390 204 q 521 428 521 335 l 521 765 l 664 765 m 579 963 l 788 963 l 788 497 l 721 497 l 721 822 l 579 822 l 579 963 z "},"K":{"ha":918,"x_min":78,"x_max":933,"o":"m 611 274 l 325 560 l 115 561 l 115 986 l 325 896 l 325 675 l 636 986 l 932 986 l 474 526 l 726 274 l 611 274 m 574 217 l 688 217 l 901 3 l 606 3 l 288 321 l 288 -3 l 78 -3 l 78 504 l 288 503 l 574 217 z "},"L":{"ha":779,"x_min":74,"x_max":760,"o":"m 456 267 l 456 171 l 75 171 l 75 965 l 283 875 l 283 267 l 456 267 m 513 210 l 760 210 l 760 0 l 132 0 l 132 114 l 513 114 l 513 210 z "},"M":{"ha":1414,"x_min":82,"x_max":1321,"o":"m 1319 968 l 1319 0 l 1111 90 l 1111 464 l 732 83 l 578 238 l 578 324 l 140 761 l 140 971 l 732 379 l 1319 968 m 83 0 l 83 724 l 521 285 l 521 200 l 293 428 l 293 0 l 83 0 z "},"N":{"ha":1024,"x_min":81,"x_max":931,"o":"m 721 879 l 931 969 l 931 0 l 626 267 l 626 356 l 139 781 l 139 971 l 721 461 l 721 879 m 82 0 l 82 724 l 569 299 l 569 210 l 292 453 l 292 0 l 82 0 z "},"Ñ":{"ha":1024,"x_min":81,"x_max":931,"o":"m 721 879 l 931 969 l 931 0 l 626 267 l 626 356 l 139 781 l 139 971 l 721 461 l 721 879 m 82 0 l 82 724 l 569 299 l 569 210 l 292 453 l 292 0 l 82 0 z "},"O":{"ha":1014,"x_min":46,"x_max":968,"o":"m 143 399 l 69 382 q 55 554 47 463 q 100 721 63 646 q 125 764 111 743 q 371 953 214 901 q 726 926 554 1014 q 868 815 808 885 q 958 658 928 746 l 907 647 q 849 754 886 704 q 740 854 804 814 l 717 869 l 632 739 q 632 739 632 739 q 435 754 536 788 q 287 626 335 721 q 272 431 239 531 q 357 308 296 357 l 279 189 q 208 260 239 219 q 151 374 169 311 l 143 399 m 947 597 q 959 426 968 517 q 913 261 950 336 q 801 117 871 178 q 643 28 731 57 q 286 56 458 -32 q 145 165 204 97 q 56 321 86 233 l 104 331 q 164 225 126 274 q 271 125 208 165 l 296 108 l 381 242 q 576 228 476 194 q 713 332 664 256 q 726 356 719 343 q 740 551 774 450 q 657 672 717 624 l 733 790 q 803 719 774 760 q 861 606 843 668 l 869 581 l 947 597 z "},"Ò":{"ha":1014,"x_min":46,"x_max":968,"o":"m 143 399 l 69 382 q 55 554 47 463 q 100 721 63 646 q 125 764 111 743 q 371 953 214 901 q 726 926 554 1014 q 868 815 808 885 q 958 658 928 746 l 907 647 q 849 754 886 704 q 740 854 804 814 l 717 869 l 632 739 q 632 739 632 739 q 435 754 536 788 q 287 626 335 721 q 272 431 239 531 q 357 308 296 357 l 279 189 q 208 260 239 219 q 151 374 169 311 l 143 399 m 947 597 q 959 426 968 517 q 913 261 950 336 q 801 117 871 178 q 643 28 731 57 q 286 56 458 -32 q 145 165 204 97 q 56 321 86 233 l 104 331 q 164 225 126 274 q 271 125 208 165 l 296 108 l 381 242 q 576 228 476 194 q 713 332 664 256 q 726 356 719 343 q 740 551 774 450 q 657 672 717 624 l 733 790 q 803 719 774 760 q 861 606 843 668 l 869 581 l 947 597 z "},"Ó":{"ha":1014,"x_min":46,"x_max":968,"o":"m 143 399 l 69 382 q 55 554 47 463 q 100 721 63 646 q 125 764 111 743 q 371 953 214 901 q 726 926 554 1014 q 868 815 808 885 q 958 658 928 746 l 907 647 q 849 754 886 704 q 740 854 804 814 l 717 869 l 632 739 q 632 739 632 739 q 435 754 536 788 q 287 626 335 721 q 272 431 239 531 q 357 308 296 357 l 279 189 q 208 260 239 219 q 151 374 169 311 l 143 399 m 947 597 q 959 426 968 517 q 913 261 950 336 q 801 117 871 178 q 643 28 731 57 q 286 56 458 -32 q 145 165 204 97 q 56 321 86 233 l 104 331 q 164 225 126 274 q 271 125 208 165 l 296 108 l 381 242 q 576 228 476 194 q 713 332 664 256 q 726 356 719 343 q 740 551 774 450 q 657 672 717 624 l 733 790 q 803 719 774 760 q 861 606 843 668 l 869 581 l 947 597 z "},"Ô":{"ha":1014,"x_min":46,"x_max":968,"o":"m 143 399 l 69 382 q 55 554 47 463 q 100 721 63 646 q 125 764 111 743 q 371 953 214 901 q 726 926 554 1014 q 868 815 808 885 q 958 658 928 746 l 907 647 q 849 754 886 704 q 740 854 804 814 l 717 869 l 632 739 q 632 739 632 739 q 435 754 536 788 q 287 626 335 721 q 272 431 239 531 q 357 308 296 357 l 279 189 q 208 260 239 219 q 151 374 169 311 l 143 399 m 947 597 q 959 426 968 517 q 913 261 950 336 q 801 117 871 178 q 643 28 731 57 q 286 56 458 -32 q 145 165 204 97 q 56 321 86 233 l 104 331 q 164 225 126 274 q 271 125 208 165 l 296 108 l 381 242 q 576 228 476 194 q 713 332 664 256 q 726 356 719 343 q 740 551 774 450 q 657 672 717 624 l 733 790 q 803 719 774 760 q 861 606 843 668 l 869 581 l 947 597 z "},"Õ":{"ha":1014,"x_min":46,"x_max":968,"o":"m 143 399 l 69 382 q 55 554 47 463 q 100 721 63 646 q 125 764 111 743 q 371 953 214 901 q 726 926 554 1014 q 868 815 808 885 q 958 658 928 746 l 907 647 q 849 754 886 704 q 740 854 804 814 l 717 869 l 632 739 q 632 739 632 739 q 435 754 536 788 q 287 626 335 721 q 272 431 239 531 q 357 308 296 357 l 279 189 q 208 260 239 219 q 151 374 169 311 l 143 399 m 947 597 q 959 426 968 517 q 913 261 950 336 q 801 117 871 178 q 643 28 731 57 q 286 56 458 -32 q 145 165 204 97 q 56 321 86 233 l 104 331 q 164 225 126 274 q 271 125 208 165 l 296 108 l 381 242 q 576 228 476 194 q 713 332 664 256 q 726 356 719 343 q 740 551 774 450 q 657 672 717 624 l 733 790 q 803 719 774 760 q 861 606 843 668 l 869 581 l 947 597 z "},"Ö":{"ha":1014,"x_min":46,"x_max":968,"o":"m 143 399 l 69 382 q 55 554 47 463 q 100 721 63 646 q 125 764 111 743 q 371 953 214 901 q 726 926 554 1014 q 868 815 808 885 q 958 658 928 746 l 907 647 q 849 754 886 704 q 740 854 804 814 l 717 869 l 632 739 q 632 739 632 739 q 435 754 536 788 q 287 626 335 721 q 272 431 239 531 q 357 308 296 357 l 279 189 q 208 260 239 219 q 151 374 169 311 l 143 399 m 947 597 q 959 426 968 517 q 913 261 950 336 q 801 117 871 178 q 643 28 731 57 q 286 56 458 -32 q 145 165 204 97 q 56 321 86 233 l 104 331 q 164 225 126 274 q 271 125 208 165 l 296 108 l 381 242 q 576 228 476 194 q 713 332 664 256 q 726 356 719 343 q 740 551 774 450 q 657 672 717 624 l 733 790 q 803 719 774 760 q 861 606 843 668 l 869 581 l 947 597 z "},"Ø":{"ha":1014,"x_min":46,"x_max":968,"o":"m 143 399 l 69 382 q 55 554 47 463 q 100 721 63 646 q 125 764 111 743 q 371 953 214 901 q 726 926 554 1014 q 868 815 808 885 q 958 658 928 746 l 907 647 q 849 754 886 704 q 740 854 804 814 l 717 869 l 632 739 q 632 739 632 739 q 435 754 536 788 q 287 626 335 721 q 272 431 239 531 q 357 308 296 357 l 279 189 q 208 260 239 219 q 151 374 169 311 l 143 399 m 947 597 q 959 426 968 517 q 913 261 950 336 q 801 117 871 178 q 643 28 731 57 q 286 56 458 -32 q 145 165 204 97 q 56 321 86 233 l 104 331 q 164 225 126 274 q 271 125 208 165 l 296 108 l 381 242 q 576 228 476 194 q 713 332 664 256 q 726 356 719 343 q 740 551 774 450 q 657 672 717 624 l 733 790 q 803 719 774 760 q 861 606 843 668 l 869 581 l 947 597 z "},"P":{"ha":951,"x_min":90,"x_max":919,"o":"m 301 369 l 482 369 l 482 304 l 301 304 l 301 -1 l 92 -1 l 92 913 l 232 913 l 232 608 l 301 608 l 301 369 m 615 969 q 830 881 740 969 q 919 665 919 792 q 830 450 919 539 q 615 361 740 361 l 539 361 l 539 426 l 358 426 l 358 569 l 615 569 q 682 598 654 569 q 710 665 710 626 q 682 732 710 704 q 615 760 654 760 l 358 760 l 358 665 l 289 665 l 289 969 l 615 969 z "},"Q":{"ha":1071,"x_min":44,"x_max":1028,"o":"m 531 235 l 636 129 q 521 111 581 111 l 493 111 l 493 24 q 175 173 306 35 q 44 499 44 311 q 108 738 44 628 q 282 911 172 847 q 521 975 392 975 q 760 911 650 975 q 933 738 869 847 q 997 499 997 628 q 944 279 997 383 l 779 444 q 759 615 799 532 q 636 738 719 697 q 521 764 582 764 q 381 724 446 764 q 282 614 317 683 q 271 412 235 515 q 406 261 307 308 q 531 235 465 232 m 688 456 l 1028 115 l 879 -33 l 786 61 q 689 15 739 32 q 550 -12 622 -8 l 550 56 q 694 89 625 60 q 736 110 714 99 l 481 365 l 688 456 z "},"R":{"ha":974,"x_min":92,"x_max":926,"o":"m 358 761 l 358 665 l 289 665 l 289 969 l 615 971 q 830 881 740 971 q 919 665 919 792 q 900 558 919 610 q 846 467 881 507 q 764 401 811 426 l 688 518 l 358 518 l 358 571 l 615 571 q 682 599 654 571 q 710 665 710 626 q 697 714 710 692 q 663 749 685 736 q 615 761 640 761 l 358 761 m 707 343 l 925 0 l 675 0 l 482 304 l 301 304 l 301 92 l 92 1 l 92 914 l 232 914 l 232 608 l 301 608 l 301 461 l 631 461 l 707 344 l 707 343 z "},"S":{"ha":942,"x_min":44,"x_max":907,"o":"m 565 514 q 726 449 660 514 q 793 290 793 383 l 860 290 q 773 85 860 169 q 565 0 686 0 l 108 0 l 108 206 l 565 206 q 625 231 600 206 q 650 290 650 256 q 625 349 650 325 q 565 374 600 374 l 339 374 q 131 459 218 374 q 44 664 44 544 l 182 664 q 247 559 185 604 q 371 514 308 514 l 565 514 m 385 560 q 309 580 344 560 q 253 634 274 600 q 233 710 233 668 l 90 710 q 177 914 90 829 q 385 999 264 999 l 899 999 l 693 793 l 385 793 q 325 769 350 793 q 300 710 300 744 q 311 667 300 686 q 342 636 322 647 q 385 625 363 625 l 611 625 q 710 602 658 625 q 807 540 763 579 q 906 335 906 450 l 843 335 q 765 491 839 422 q 611 560 690 560 l 385 560 z "},"T":{"ha":889,"x_min":21,"x_max":890,"o":"m 458 849 l 458 536 l 532 536 l 532 7 l 322 7 l 322 711 l 21 711 l 21 921 l 229 921 l 229 849 l 458 849 m 286 978 l 889 978 l 806 768 l 589 768 l 589 594 l 515 594 l 515 906 l 286 906 l 286 978 z "},"U":{"ha":999,"x_min":71,"x_max":926,"o":"m 735 956 l 925 956 l 925 433 q 899 286 925 357 q 838 181 876 228 l 738 272 l 718 251 q 544 163 649 174 l 546 219 q 640 257 597 226 q 709 335 683 288 q 735 435 735 382 l 735 956 m 518 104 q 740 192 646 104 l 826 114 q 518 -11 697 -11 q 294 49 397 -11 q 132 211 192 108 q 72 435 72 314 l 72 956 l 276 867 l 275 433 q 333 275 275 343 q 478 193 390 207 l 488 192 l 489 104 l 518 104 z "},"Ù":{"ha":999,"x_min":71,"x_max":926,"o":"m 735 956 l 925 956 l 925 433 q 899 286 925 357 q 838 181 876 228 l 738 272 l 718 251 q 544 163 649 174 l 546 219 q 640 257 597 226 q 709 335 683 288 q 735 435 735 382 l 735 956 m 518 104 q 740 192 646 104 l 826 114 q 518 -11 697 -11 q 294 49 397 -11 q 132 211 192 108 q 72 435 72 314 l 72 956 l 276 867 l 275 433 q 333 275 275 343 q 478 193 390 207 l 488 192 l 489 104 l 518 104 z "},"Ú":{"ha":999,"x_min":71,"x_max":926,"o":"m 735 956 l 925 956 l 925 433 q 899 286 925 357 q 838 181 876 228 l 738 272 l 718 251 q 544 163 649 174 l 546 219 q 640 257 597 226 q 709 335 683 288 q 735 435 735 382 l 735 956 m 518 104 q 740 192 646 104 l 826 114 q 518 -11 697 -11 q 294 49 397 -11 q 132 211 192 108 q 72 435 72 314 l 72 956 l 276 867 l 275 433 q 333 275 275 343 q 478 193 390 207 l 488 192 l 489 104 l 518 104 z "},"Û":{"ha":999,"x_min":71,"x_max":926,"o":"m 735 956 l 925 956 l 925 433 q 899 286 925 357 q 838 181 876 228 l 738 272 l 718 251 q 544 163 649 174 l 546 219 q 640 257 597 226 q 709 335 683 288 q 735 435 735 382 l 735 956 m 518 104 q 740 192 646 104 l 826 114 q 518 -11 697 -11 q 294 49 397 -11 q 132 211 192 108 q 72 435 72 314 l 72 956 l 276 867 l 275 433 q 333 275 275 343 q 478 193 390 207 l 488 192 l 489 104 l 518 104 z "},"Ü":{"ha":999,"x_min":71,"x_max":926,"o":"m 735 956 l 925 956 l 925 433 q 899 286 925 357 q 838 181 876 228 l 738 272 l 718 251 q 544 163 649 174 l 546 219 q 640 257 597 226 q 709 335 683 288 q 735 435 735 382 l 735 956 m 518 104 q 740 192 646 104 l 826 114 q 518 -11 697 -11 q 294 49 397 -11 q 132 211 192 108 q 72 435 72 314 l 72 956 l 276 867 l 275 433 q 333 275 275 343 q 478 193 390 207 l 488 192 l 489 104 l 518 104 z "},"V":{"ha":982,"x_min":6,"x_max":981,"o":"m 750 972 l 981 972 l 571 82 l 531 169 l 690 519 l 615 681 l 750 972 m 614 500 l 454 151 l 494 64 l 454 -24 l 6 953 l 236 953 l 454 476 l 539 661 l 614 500 z "},"W":{"ha":1428,"x_min":0,"x_max":1422,"o":"m 478 435 l 636 693 l 913 239 l 847 96 l 682 368 l 451 -11 l 449 -4 l 0 972 l 231 972 l 478 435 m 1190 949 l 1421 949 l 992 15 l 989 7 l 924 115 l 989 258 l 711 713 l 758 789 l 963 453 l 1190 949 z "},"X":{"ha":992,"x_min":14,"x_max":988,"o":"m 865 246 l 768 246 l 246 981 l 343 981 l 536 708 l 731 981 l 986 981 l 988 981 l 665 528 l 865 246 m 717 199 l 815 199 l 957 0 l 700 0 l 486 300 l 272 0 l 15 0 l 357 481 l 42 924 l 201 924 l 717 199 z "},"Y":{"ha":972,"x_min":-12,"x_max":992,"o":"m 215 769 l 514 349 l 554 349 l 554 1 l 344 1 l 344 357 l 61 769 l 215 769 m 736 989 l 990 989 l 592 410 l 592 406 l 553 406 l 253 826 l 99 826 l -12 989 l 242 989 l 489 629 l 736 989 z "},"Ý":{"ha":972,"x_min":-12,"x_max":992,"o":"m 215 769 l 514 349 l 554 349 l 554 1 l 344 1 l 344 357 l 61 769 l 215 769 m 736 989 l 990 989 l 592 410 l 592 406 l 553 406 l 253 826 l 99 826 l -12 989 l 242 989 l 489 629 l 736 989 z "},"Ÿ":{"ha":972,"x_min":-12,"x_max":992,"o":"m 215 769 l 514 349 l 554 349 l 554 1 l 344 1 l 344 357 l 61 769 l 215 769 m 736 989 l 990 989 l 592 410 l 592 406 l 553 406 l 253 826 l 99 826 l -12 989 l 242 989 l 489 629 l 736 989 z "},"Z":{"ha":1056,"x_min":8,"x_max":1056,"o":"m 633 500 l 422 213 l 958 213 l 804 4 l 8 4 l 526 710 l 683 710 l 683 708 l 531 500 l 633 500 m 122 976 l 1054 976 l 1054 975 l 747 557 l 644 557 l 797 767 l 122 767 l 122 976 z "},"[":{"ha":453,"x_min":93,"x_max":417,"o":"m 417 963 l 226 963 l 226 11 l 417 11 l 417 -122 l 93 -122 l 93 1096 l 417 1096 l 417 963 z "},"]":{"ha":453,"x_min":36,"x_max":360,"o":"m 36 1096 l 360 1096 l 360 -122 l 36 -122 l 36 11 l 226 11 l 226 963 l 36 963 l 36 1096 z "},"_":{"ha":646,"x_min":21,"x_max":625,"o":"m 625 1 l 21 1 l 21 94 l 625 94 l 625 1 z "},"`":{"ha":158,"x_min":25,"x_max":133,"o":"m 25 1029 l 133 1029 l 133 921 l 56 822 l 69 921 l 25 921 l 25 1029 z "},"a":{"ha":881,"x_min":4,"x_max":867,"o":"m 454 476 l 410 379 l 179 379 l 454 978 l 799 228 l 383 228 l 404 276 l 547 276 l 454 476 m 817 190 l 865 83 l 674 1 l 643 67 l 267 67 l 236 1 l 6 1 l 163 342 l 393 342 l 324 190 l 817 190 z "},"à":{"ha":881,"x_min":4,"x_max":867,"o":"m 454 476 l 410 379 l 179 379 l 454 978 l 799 228 l 383 228 l 404 276 l 547 276 l 454 476 m 817 190 l 865 83 l 674 1 l 643 67 l 267 67 l 236 1 l 6 1 l 163 342 l 393 342 l 324 190 l 817 190 z "},"á":{"ha":881,"x_min":4,"x_max":867,"o":"m 454 476 l 410 379 l 179 379 l 454 978 l 799 228 l 383 228 l 404 276 l 547 276 l 454 476 m 817 190 l 865 83 l 674 1 l 643 67 l 267 67 l 236 1 l 6 1 l 163 342 l 393 342 l 324 190 l 817 190 z "},"â":{"ha":881,"x_min":4,"x_max":867,"o":"m 454 476 l 410 379 l 179 379 l 454 978 l 799 228 l 383 228 l 404 276 l 547 276 l 454 476 m 817 190 l 865 83 l 674 1 l 643 67 l 267 67 l 236 1 l 6 1 l 163 342 l 393 342 l 324 190 l 817 190 z "},"ã":{"ha":881,"x_min":4,"x_max":867,"o":"m 454 476 l 410 379 l 179 379 l 454 978 l 799 228 l 383 228 l 404 276 l 547 276 l 454 476 m 817 190 l 865 83 l 674 1 l 643 67 l 267 67 l 236 1 l 6 1 l 163 342 l 393 342 l 324 190 l 817 190 z "},"ä":{"ha":881,"x_min":4,"x_max":867,"o":"m 454 476 l 410 379 l 179 379 l 454 978 l 799 228 l 383 228 l 404 276 l 547 276 l 454 476 m 817 190 l 865 83 l 674 1 l 643 67 l 267 67 l 236 1 l 6 1 l 163 342 l 393 342 l 324 190 l 817 190 z "},"å":{"ha":881,"x_min":4,"x_max":867,"o":"m 454 476 l 410 379 l 179 379 l 454 978 l 799 228 l 383 228 l 404 276 l 547 276 l 454 476 m 817 190 l 865 83 l 674 1 l 643 67 l 267 67 l 236 1 l 6 1 l 163 342 l 393 342 l 324 190 l 817 190 z "},"b":{"ha":908,"x_min":93,"x_max":857,"o":"m 758 526 q 856 304 856 436 q 767 90 856 179 q 551 0 678 0 l 481 0 l 481 140 l 340 140 l 340 210 l 551 210 q 599 222 576 210 q 633 257 621 235 q 646 304 646 279 q 618 372 646 344 q 551 400 590 400 l 303 400 l 303 103 l 443 103 l 443 0 l 93 0 l 93 932 l 203 932 l 203 608 l 532 608 q 560 616 547 608 q 581 637 574 624 q 589 665 589 650 q 572 706 589 689 q 532 724 556 724 l 303 724 l 303 647 l 240 647 l 240 932 l 532 932 q 721 854 643 932 q 799 665 799 776 q 758 526 799 592 z "},"c":{"ha":875,"x_min":46,"x_max":844,"o":"m 694 286 l 844 139 q 692 37 779 74 q 511 0 604 0 q 188 131 324 0 q 46 447 53 261 l 101 447 q 119 342 103 393 q 165 244 136 290 q 235 161 194 199 l 247 150 l 372 251 q 511 210 436 210 q 694 286 619 210 m 139 467 l 139 485 l 46 485 q 188 802 53 672 q 511 932 324 932 q 690 897 604 932 q 842 796 776 861 l 693 647 q 512 724 618 724 q 330 648 406 724 q 254 467 254 572 q 340 275 254 351 l 249 200 q 139 467 139 311 z "},"ç":{"ha":875,"x_min":46,"x_max":844,"o":"m 694 286 l 844 139 q 692 37 779 74 q 511 0 604 0 q 188 131 324 0 q 46 447 53 261 l 101 447 q 119 342 103 393 q 165 244 136 290 q 235 161 194 199 l 247 150 l 372 251 q 511 210 436 210 q 694 286 619 210 m 139 467 l 139 485 l 46 485 q 188 802 53 672 q 511 932 324 932 q 690 897 604 932 q 842 796 776 861 l 693 647 q 512 724 618 724 q 330 648 406 724 q 254 467 254 572 q 340 275 254 351 l 249 200 q 139 467 139 311 z "},"d":{"ha":915,"x_min":92,"x_max":867,"o":"m 726 811 q 830 655 793 744 q 867 469 867 565 q 808 235 867 343 q 649 65 750 128 q 431 3 549 3 l 339 3 l 339 213 l 429 213 q 590 288 522 213 q 657 469 657 364 q 579 661 657 585 q 431 725 514 725 l 301 725 l 301 389 l 199 389 l 199 850 l 92 850 l 92 933 l 429 935 q 726 811 600 935 m 160 811 l 160 350 l 300 350 l 300 1 l 92 1 l 92 811 l 160 811 z "},"e":{"ha":856,"x_min":92,"x_max":783,"o":"m 301 368 l 301 211 l 783 211 l 783 1 l 92 1 l 92 549 l 153 549 l 153 426 l 350 426 l 350 368 l 301 368 m 783 725 l 301 725 l 301 576 l 783 576 l 783 574 l 701 368 l 389 368 l 389 465 l 192 465 l 192 586 l 92 586 l 92 933 l 783 933 l 783 725 z "},"è":{"ha":856,"x_min":92,"x_max":783,"o":"m 301 368 l 301 211 l 783 211 l 783 1 l 92 1 l 92 549 l 153 549 l 153 426 l 350 426 l 350 368 l 301 368 m 783 725 l 301 725 l 301 576 l 783 576 l 783 574 l 701 368 l 389 368 l 389 465 l 192 465 l 192 586 l 92 586 l 92 933 l 783 933 l 783 725 z "},"é":{"ha":856,"x_min":92,"x_max":783,"o":"m 301 368 l 301 211 l 783 211 l 783 1 l 92 1 l 92 549 l 153 549 l 153 426 l 350 426 l 350 368 l 301 368 m 783 725 l 301 725 l 301 576 l 783 576 l 783 574 l 701 368 l 389 368 l 389 465 l 192 465 l 192 586 l 92 586 l 92 933 l 783 933 l 783 725 z "},"ê":{"ha":856,"x_min":92,"x_max":783,"o":"m 301 368 l 301 211 l 783 211 l 783 1 l 92 1 l 92 549 l 153 549 l 153 426 l 350 426 l 350 368 l 301 368 m 783 725 l 301 725 l 301 576 l 783 576 l 783 574 l 701 368 l 389 368 l 389 465 l 192 465 l 192 586 l 92 586 l 92 933 l 783 933 l 783 725 z "},"ë":{"ha":856,"x_min":92,"x_max":783,"o":"m 301 368 l 301 211 l 783 211 l 783 1 l 92 1 l 92 549 l 153 549 l 153 426 l 350 426 l 350 368 l 301 368 m 783 725 l 301 725 l 301 576 l 783 576 l 783 574 l 701 368 l 389 368 l 389 465 l 192 465 l 192 586 l 92 586 l 92 933 l 783 933 l 783 725 z "},"f":{"ha":813,"x_min":92,"x_max":786,"o":"m 196 826 l 196 486 l 688 486 l 604 276 l 301 276 l 301 3 l 92 3 l 92 826 l 196 826 m 92 933 l 786 933 l 786 724 l 301 724 l 301 524 l 233 524 l 233 865 l 92 865 l 92 933 z "},"g":{"ha":1058,"x_min":47,"x_max":1026,"o":"m 689 567 l 1025 567 l 1018 454 q 999 347 1014 400 l 842 347 l 838 338 q 719 203 797 254 q 551 146 642 151 l 551 211 q 642 233 599 214 q 721 284 686 253 q 776 357 756 315 l 606 357 l 689 567 m 532 107 q 666 132 601 107 q 782 203 731 157 q 865 310 833 249 l 985 310 q 808 87 931 172 q 533 1 685 1 q 290 66 401 1 q 113 243 178 131 q 47 487 47 356 q 113 731 47 618 q 290 908 178 843 q 533 972 401 972 q 846 858 711 972 l 711 699 q 533 764 635 764 q 338 683 418 764 q 257 488 257 601 q 331 299 257 378 q 513 211 406 219 l 513 107 l 532 107 z "},"h":{"ha":983,"x_min":93,"x_max":890,"o":"m 681 933 l 890 933 l 890 3 l 681 94 l 681 513 l 410 513 l 410 572 l 681 572 l 681 933 m 372 572 l 372 474 l 643 474 l 643 363 l 303 363 l 303 1 l 93 1 l 93 933 l 303 933 l 303 572 l 372 572 z "},"i":{"ha":390,"x_min":88,"x_max":299,"o":"m 89 932 l 299 932 l 299 514 l 242 514 l 242 799 l 89 799 l 89 932 m 203 761 l 203 475 l 299 475 l 299 1 l 89 92 l 89 761 l 203 761 z "},"ì":{"ha":390,"x_min":88,"x_max":299,"o":"m 89 932 l 299 932 l 299 514 l 242 514 l 242 799 l 89 799 l 89 932 m 203 761 l 203 475 l 299 475 l 299 1 l 89 92 l 89 761 l 203 761 z "},"í":{"ha":390,"x_min":88,"x_max":299,"o":"m 89 932 l 299 932 l 299 514 l 242 514 l 242 799 l 89 799 l 89 932 m 203 761 l 203 475 l 299 475 l 299 1 l 89 92 l 89 761 l 203 761 z "},"î":{"ha":390,"x_min":88,"x_max":299,"o":"m 89 932 l 299 932 l 299 514 l 242 514 l 242 799 l 89 799 l 89 932 m 203 761 l 203 475 l 299 475 l 299 1 l 89 92 l 89 761 l 203 761 z "},"ï":{"ha":390,"x_min":88,"x_max":299,"o":"m 89 932 l 299 932 l 299 514 l 242 514 l 242 799 l 89 799 l 89 932 m 203 761 l 203 475 l 299 475 l 299 1 l 89 92 l 89 761 l 203 761 z "},"j":{"ha":806,"x_min":4,"x_max":733,"o":"m 524 931 l 733 931 l 733 465 l 685 465 l 685 810 l 524 810 l 524 931 m 647 772 l 647 428 l 733 428 q 706 281 732 351 q 633 156 679 211 q 524 63 586 101 q 300 1 421 1 q 6 117 131 1 l 240 218 q 300 210 269 210 q 458 276 393 210 q 524 433 524 342 l 524 772 l 647 772 z "},"k":{"ha":924,"x_min":92,"x_max":915,"o":"m 596 240 l 308 526 l 92 528 l 92 933 l 301 843 l 301 622 l 613 933 l 908 933 l 449 474 l 683 240 l 596 240 m 721 203 l 915 8 l 619 8 l 301 326 l 301 1 l 92 1 l 92 490 l 293 489 l 579 203 l 721 203 z "},"l":{"ha":776,"x_min":92,"x_max":758,"o":"m 519 211 l 757 211 l 757 1 l 92 1 l 92 1 l 92 88 l 519 88 l 519 211 m 482 211 l 482 125 l 92 125 l 92 933 l 301 843 l 301 211 l 482 211 z "},"m":{"ha":1365,"x_min":90,"x_max":1272,"o":"m 92 1 l 92 754 l 529 317 l 529 200 l 301 429 l 301 1 l 92 1 m 682 343 l 1271 932 l 1271 1 l 1063 92 l 1063 426 l 682 47 l 567 163 l 567 332 l 92 808 l 92 933 l 682 343 z "},"n":{"ha":976,"x_min":90,"x_max":883,"o":"m 92 1 l 92 757 l 560 349 l 560 285 l 301 511 l 301 1 l 92 1 m 883 939 l 883 1 l 883 1 l 599 251 l 599 365 l 92 807 l 92 972 l 674 463 l 674 847 l 883 939 z "},"ñ":{"ha":976,"x_min":90,"x_max":883,"o":"m 92 1 l 92 757 l 560 349 l 560 285 l 301 511 l 301 1 l 92 1 m 883 939 l 883 1 l 883 1 l 599 251 l 599 365 l 92 807 l 92 972 l 674 463 l 674 847 l 883 939 z "},"o":{"ha":1026,"x_min":17,"x_max":1010,"o":"m 153 356 l 147 372 l 61 351 q 93 672 18 518 q 205 819 133 757 q 360 909 276 881 q 537 933 443 938 q 715 888 631 929 q 858 781 799 847 q 949 631 918 714 l 892 618 q 831 728 869 678 q 722 825 785 786 l 707 835 l 622 700 q 513 725 569 725 q 420 708 465 725 q 339 658 375 692 q 281 581 303 625 q 269 385 235 485 q 358 263 296 310 l 296 163 q 214 240 250 194 q 153 356 174 292 m 961 594 q 932 265 1008 424 q 822 119 890 181 q 665 28 753 58 q 511 3 590 3 q 308 49 406 3 q 164 159 225 90 q 72 315 103 228 l 122 328 q 185 217 144 267 q 292 119 229 158 l 308 110 l 390 243 q 394 240 392 242 q 400 238 399 239 q 597 226 496 192 q 744 357 697 261 q 754 553 790 453 q 656 681 726 633 l 718 782 q 800 706 765 750 q 861 589 840 653 l 867 572 l 961 594 z "},"ò":{"ha":1026,"x_min":17,"x_max":1010,"o":"m 153 356 l 147 372 l 61 351 q 93 672 18 518 q 205 819 133 757 q 360 909 276 881 q 537 933 443 938 q 715 888 631 929 q 858 781 799 847 q 949 631 918 714 l 892 618 q 831 728 869 678 q 722 825 785 786 l 707 835 l 622 700 q 513 725 569 725 q 420 708 465 725 q 339 658 375 692 q 281 581 303 625 q 269 385 235 485 q 358 263 296 310 l 296 163 q 214 240 250 194 q 153 356 174 292 m 961 594 q 932 265 1008 424 q 822 119 890 181 q 665 28 753 58 q 511 3 590 3 q 308 49 406 3 q 164 159 225 90 q 72 315 103 228 l 122 328 q 185 217 144 267 q 292 119 229 158 l 308 110 l 390 243 q 394 240 392 242 q 400 238 399 239 q 597 226 496 192 q 744 357 697 261 q 754 553 790 453 q 656 681 726 633 l 718 782 q 800 706 765 750 q 861 589 840 653 l 867 572 l 961 594 z "},"ó":{"ha":1026,"x_min":17,"x_max":1010,"o":"m 153 356 l 147 372 l 61 351 q 93 672 18 518 q 205 819 133 757 q 360 909 276 881 q 537 933 443 938 q 715 888 631 929 q 858 781 799 847 q 949 631 918 714 l 892 618 q 831 728 869 678 q 722 825 785 786 l 707 835 l 622 700 q 513 725 569 725 q 420 708 465 725 q 339 658 375 692 q 281 581 303 625 q 269 385 235 485 q 358 263 296 310 l 296 163 q 214 240 250 194 q 153 356 174 292 m 961 594 q 932 265 1008 424 q 822 119 890 181 q 665 28 753 58 q 511 3 590 3 q 308 49 406 3 q 164 159 225 90 q 72 315 103 228 l 122 328 q 185 217 144 267 q 292 119 229 158 l 308 110 l 390 243 q 394 240 392 242 q 400 238 399 239 q 597 226 496 192 q 744 357 697 261 q 754 553 790 453 q 656 681 726 633 l 718 782 q 800 706 765 750 q 861 589 840 653 l 867 572 l 961 594 z "},"ô":{"ha":1026,"x_min":17,"x_max":1010,"o":"m 153 356 l 147 372 l 61 351 q 93 672 18 518 q 205 819 133 757 q 360 909 276 881 q 537 933 443 938 q 715 888 631 929 q 858 781 799 847 q 949 631 918 714 l 892 618 q 831 728 869 678 q 722 825 785 786 l 707 835 l 622 700 q 513 725 569 725 q 420 708 465 725 q 339 658 375 692 q 281 581 303 625 q 269 385 235 485 q 358 263 296 310 l 296 163 q 214 240 250 194 q 153 356 174 292 m 961 594 q 932 265 1008 424 q 822 119 890 181 q 665 28 753 58 q 511 3 590 3 q 308 49 406 3 q 164 159 225 90 q 72 315 103 228 l 122 328 q 185 217 144 267 q 292 119 229 158 l 308 110 l 390 243 q 394 240 392 242 q 400 238 399 239 q 597 226 496 192 q 744 357 697 261 q 754 553 790 453 q 656 681 726 633 l 718 782 q 800 706 765 750 q 861 589 840 653 l 867 572 l 961 594 z "},"õ":{"ha":1026,"x_min":17,"x_max":1010,"o":"m 153 356 l 147 372 l 61 351 q 93 672 18 518 q 205 819 133 757 q 360 909 276 881 q 537 933 443 938 q 715 888 631 929 q 858 781 799 847 q 949 631 918 714 l 892 618 q 831 728 869 678 q 722 825 785 786 l 707 835 l 622 700 q 513 725 569 725 q 420 708 465 725 q 339 658 375 692 q 281 581 303 625 q 269 385 235 485 q 358 263 296 310 l 296 163 q 214 240 250 194 q 153 356 174 292 m 961 594 q 932 265 1008 424 q 822 119 890 181 q 665 28 753 58 q 511 3 590 3 q 308 49 406 3 q 164 159 225 90 q 72 315 103 228 l 122 328 q 185 217 144 267 q 292 119 229 158 l 308 110 l 390 243 q 394 240 392 242 q 400 238 399 239 q 597 226 496 192 q 744 357 697 261 q 754 553 790 453 q 656 681 726 633 l 718 782 q 800 706 765 750 q 861 589 840 653 l 867 572 l 961 594 z "},"ö":{"ha":1026,"x_min":17,"x_max":1010,"o":"m 153 356 l 147 372 l 61 351 q 93 672 18 518 q 205 819 133 757 q 360 909 276 881 q 537 933 443 938 q 715 888 631 929 q 858 781 799 847 q 949 631 918 714 l 892 618 q 831 728 869 678 q 722 825 785 786 l 707 835 l 622 700 q 513 725 569 725 q 420 708 465 725 q 339 658 375 692 q 281 581 303 625 q 269 385 235 485 q 358 263 296 310 l 296 163 q 214 240 250 194 q 153 356 174 292 m 961 594 q 932 265 1008 424 q 822 119 890 181 q 665 28 753 58 q 511 3 590 3 q 308 49 406 3 q 164 159 225 90 q 72 315 103 228 l 122 328 q 185 217 144 267 q 292 119 229 158 l 308 110 l 390 243 q 394 240 392 242 q 400 238 399 239 q 597 226 496 192 q 744 357 697 261 q 754 553 790 453 q 656 681 726 633 l 718 782 q 800 706 765 750 q 861 589 840 653 l 867 572 l 961 594 z "},"ø":{"ha":1026,"x_min":17,"x_max":1010,"o":"m 153 356 l 147 372 l 61 351 q 93 672 18 518 q 205 819 133 757 q 360 909 276 881 q 537 933 443 938 q 715 888 631 929 q 858 781 799 847 q 949 631 918 714 l 892 618 q 831 728 869 678 q 722 825 785 786 l 707 835 l 622 700 q 513 725 569 725 q 420 708 465 725 q 339 658 375 692 q 281 581 303 625 q 269 385 235 485 q 358 263 296 310 l 296 163 q 214 240 250 194 q 153 356 174 292 m 961 594 q 932 265 1008 424 q 822 119 890 181 q 665 28 753 58 q 511 3 590 3 q 308 49 406 3 q 164 159 225 90 q 72 315 103 228 l 122 328 q 185 217 144 267 q 292 119 229 158 l 308 110 l 390 243 q 394 240 392 242 q 400 238 399 239 q 597 226 496 192 q 744 357 697 261 q 754 553 790 453 q 656 681 726 633 l 718 782 q 800 706 765 750 q 861 589 840 653 l 867 572 l 961 594 z "},"p":{"ha":899,"x_min":92,"x_max":864,"o":"m 303 582 l 303 389 l 481 389 l 481 325 l 303 325 l 303 1 l 93 1 l 93 933 l 204 933 l 204 582 l 303 582 m 560 933 q 774 844 685 933 q 864 630 864 756 q 774 415 864 504 q 560 325 685 325 l 518 325 l 518 426 l 340 426 l 340 535 l 560 535 q 597 542 579 535 q 626 563 614 550 q 647 592 639 575 q 654 629 654 610 q 626 697 654 669 q 560 725 599 725 l 303 725 l 303 619 l 242 619 l 242 933 l 560 933 z "},"q":{"ha":1103,"x_min":8,"x_max":1050,"o":"m 690 118 q 542 90 618 90 l 522 90 l 522 1 q 326 50 419 6 q 173 166 238 93 q 76 332 108 239 q 99 710 10 525 q 215 863 142 799 q 381 960 288 928 q 757 938 574 1026 q 913 819 847 894 q 1008 656 978 744 q 1034 468 1039 567 q 986 279 1029 369 q 967 244 978 263 l 810 401 q 804 601 844 501 q 665 749 764 701 q 542 778 607 778 q 449 763 494 778 q 286 618 338 724 q 274 401 235 513 q 418 239 313 290 q 593 215 501 197 l 690 118 m 708 450 l 1049 111 l 900 -37 l 793 71 q 681 22 740 39 q 561 1 622 4 l 561 51 q 756 107 665 57 l 503 361 l 708 450 z "},"r":{"ha":965,"x_min":93,"x_max":946,"o":"m 560 725 l 303 725 l 303 619 l 242 619 l 242 933 l 560 933 q 712 893 642 933 q 823 783 782 853 q 864 629 864 713 q 848 532 864 579 q 803 447 832 485 q 735 381 774 408 l 660 489 l 340 489 l 340 535 l 560 535 q 626 563 599 535 q 654 629 654 590 q 642 677 654 656 q 607 712 629 699 q 560 725 585 725 m 640 450 l 946 1 l 696 1 l 483 325 l 303 325 l 303 93 l 93 3 l 93 933 l 204 933 l 204 582 l 303 582 l 303 450 l 640 450 z "},"s":{"ha":908,"x_min":50,"x_max":865,"o":"m 213 675 l 213 694 l 51 694 q 144 890 58 810 q 346 971 229 971 l 860 971 l 860 969 l 651 761 l 346 761 q 285 736 310 761 q 260 676 260 711 q 285 615 260 640 q 346 590 310 590 l 571 590 q 773 510 688 590 q 865 314 858 429 l 818 314 q 739 476 810 410 q 571 542 668 542 l 346 542 q 251 581 290 542 q 213 675 213 621 m 781 294 l 781 276 l 865 276 q 773 80 858 160 q 571 0 688 0 l 114 0 l 114 210 l 571 210 q 632 235 607 210 q 657 295 657 260 q 632 356 657 331 q 571 381 607 381 l 346 381 q 144 460 229 381 q 51 657 58 540 l 175 657 q 231 548 182 592 q 346 504 281 504 l 571 504 q 719 443 657 504 q 781 294 781 382 z "},"t":{"ha":836,"x_min":18,"x_max":831,"o":"m 424 829 l 424 518 l 529 518 l 529 1 l 319 1 l 319 725 l 18 725 l 18 933 l 194 933 l 194 829 l 424 829 m 233 933 l 829 933 l 747 725 l 529 725 l 529 556 l 463 556 l 463 867 l 233 867 l 233 933 z "},"u":{"ha":1017,"x_min":72,"x_max":944,"o":"m 735 939 l 944 939 l 944 438 q 844 161 944 282 l 736 256 l 724 242 q 531 149 646 157 l 531 211 q 634 248 588 217 q 708 329 681 279 q 735 436 735 379 l 735 939 m 511 110 q 739 203 643 110 l 819 132 q 678 35 758 69 q 508 0 597 0 q 200 128 328 0 q 72 436 72 256 l 72 939 l 75 938 l 282 847 l 282 438 q 343 282 282 347 q 493 211 404 217 l 493 110 l 511 110 z "},"ù":{"ha":1017,"x_min":72,"x_max":944,"o":"m 735 939 l 944 939 l 944 438 q 844 161 944 282 l 736 256 l 724 242 q 531 149 646 157 l 531 211 q 634 248 588 217 q 708 329 681 279 q 735 436 735 379 l 735 939 m 511 110 q 739 203 643 110 l 819 132 q 678 35 758 69 q 508 0 597 0 q 200 128 328 0 q 72 436 72 256 l 72 939 l 75 938 l 282 847 l 282 438 q 343 282 282 347 q 493 211 404 217 l 493 110 l 511 110 z "},"ú":{"ha":1017,"x_min":72,"x_max":944,"o":"m 735 939 l 944 939 l 944 438 q 844 161 944 282 l 736 256 l 724 242 q 531 149 646 157 l 531 211 q 634 248 588 217 q 708 329 681 279 q 735 436 735 379 l 735 939 m 511 110 q 739 203 643 110 l 819 132 q 678 35 758 69 q 508 0 597 0 q 200 128 328 0 q 72 436 72 256 l 72 939 l 75 938 l 282 847 l 282 438 q 343 282 282 347 q 493 211 404 217 l 493 110 l 511 110 z "},"û":{"ha":1017,"x_min":72,"x_max":944,"o":"m 735 939 l 944 939 l 944 438 q 844 161 944 282 l 736 256 l 724 242 q 531 149 646 157 l 531 211 q 634 248 588 217 q 708 329 681 279 q 735 436 735 379 l 735 939 m 511 110 q 739 203 643 110 l 819 132 q 678 35 758 69 q 508 0 597 0 q 200 128 328 0 q 72 436 72 256 l 72 939 l 75 938 l 282 847 l 282 438 q 343 282 282 347 q 493 211 404 217 l 493 110 l 511 110 z "},"ü":{"ha":1017,"x_min":72,"x_max":944,"o":"m 735 939 l 944 939 l 944 438 q 844 161 944 282 l 736 256 l 724 242 q 531 149 646 157 l 531 211 q 634 248 588 217 q 708 329 681 279 q 735 436 735 379 l 735 939 m 511 110 q 739 203 643 110 l 819 132 q 678 35 758 69 q 508 0 597 0 q 200 128 328 0 q 72 436 72 256 l 72 939 l 75 938 l 282 847 l 282 438 q 343 282 282 347 q 493 211 404 217 l 493 110 l 511 110 z "},"v":{"ha":913,"x_min":7,"x_max":906,"o":"m 675 929 l 906 929 l 528 107 l 496 175 l 561 314 l 476 499 l 675 929 m 519 314 l 454 175 l 507 61 l 456 -47 l 7 929 l 238 929 l 519 314 z "},"w":{"ha":1376,"x_min":6,"x_max":1371,"o":"m 629 628 l 897 190 l 840 69 l 688 321 l 457 -58 l 454 -50 l 6 926 l 236 926 l 483 388 l 629 628 m 1140 926 l 1369 926 l 921 -50 l 918 -58 l 865 31 l 940 193 l 651 664 l 688 724 l 892 388 l 1140 926 z "},"x":{"ha":964,"x_min":11,"x_max":953,"o":"m 799 217 l 711 217 l 204 931 l 292 931 l 482 663 l 672 931 l 929 931 l 610 482 l 799 217 m 826 179 l 953 1 l 696 1 l 482 301 l 268 1 l 11 1 l 353 482 l 35 931 l 157 931 l 692 179 l 826 179 z "},"y":{"ha":1001,"x_min":-1,"x_max":1003,"o":"m 747 932 l 1001 932 l 614 368 l 574 368 l 274 789 l 97 789 l -1 932 l 253 932 l 500 572 l 747 932 m 254 751 l 554 329 l 603 329 l 603 1 l 394 1 l 394 357 l 124 751 l 254 751 z "},"ý":{"ha":1001,"x_min":-1,"x_max":1003,"o":"m 747 932 l 1001 932 l 614 368 l 574 368 l 274 789 l 97 789 l -1 932 l 253 932 l 500 572 l 747 932 m 254 751 l 554 329 l 603 329 l 603 1 l 394 1 l 394 357 l 124 751 l 254 751 z "},"ÿ":{"ha":1001,"x_min":-1,"x_max":1003,"o":"m 747 932 l 1001 932 l 614 368 l 574 368 l 274 789 l 97 789 l -1 932 l 253 932 l 500 572 l 747 932 m 254 751 l 554 329 l 603 329 l 603 1 l 394 1 l 394 357 l 124 751 l 254 751 z "},"z":{"ha":981,"x_min":26,"x_max":960,"o":"m 636 476 l 442 211 l 940 211 l 788 3 l 28 3 l 518 669 l 657 669 l 515 478 l 636 478 l 636 476 m 46 917 l 958 917 l 664 515 l 590 515 l 732 708 l 46 708 l 46 917 z "},"{":{"ha":1658,"x_min":43,"x_max":1601,"o":"m 1600 950 l 1515 950 l 1515 -18 l 1600 -18 l 1600 -132 l 1401 -132 l 1401 310 l 1056 310 l 1056 164 l 697 164 q 652 115 682 133 q 586 96 622 96 q 499 132 536 96 q 463 219 463 168 q 499 306 463 269 q 586 343 536 343 q 650 325 621 343 q 694 278 679 307 l 942 278 l 942 456 l 276 456 q 232 409 261 426 q 168 392 203 392 q 81 428 117 392 q 44 515 44 464 q 81 603 44 567 q 168 639 117 639 q 234 620 204 639 q 279 569 264 601 l 1056 569 l 1056 425 l 1201 425 l 1201 658 l 613 658 q 568 612 597 629 q 504 594 539 594 q 417 631 453 594 q 381 718 381 667 q 390 766 381 743 q 417 806 400 789 q 456 832 433 822 q 504 842 479 842 q 550 833 528 842 q 588 809 572 825 q 615 774 604 793 l 1315 774 l 1315 425 l 1401 425 l 1401 1064 l 1600 1064 l 1600 950 z "},"|":{"ha":396,"x_min":93,"x_max":303,"o":"m 303 -47 l 93 -47 l 93 1006 l 303 1006 l 303 -47 z "},"}":{"ha":1658,"x_min":56,"x_max":1614,"o":"m 1489 639 q 1576 603 1540 639 q 1613 515 1613 567 q 1576 428 1613 464 q 1489 392 1540 392 q 1426 409 1456 392 q 1381 456 1397 426 l 717 456 l 717 278 l 963 278 q 1008 325 979 307 q 1071 343 1036 343 q 1119 333 1096 343 q 1158 306 1142 322 q 1185 267 1175 290 q 1194 219 1194 244 q 1158 131 1194 168 q 1071 94 1122 94 q 1005 114 1035 94 q 960 164 975 133 l 603 164 l 603 310 l 257 310 l 257 -132 l 57 -132 l 57 -18 l 143 -18 l 143 950 l 57 950 l 57 1064 l 257 1064 l 257 425 l 342 425 l 342 774 l 1043 774 q 1054 792 1047 783 q 1069 809 1061 801 q 1088 823 1078 817 q 1108 833 1097 829 q 1130 840 1118 838 q 1153 842 1142 842 q 1240 806 1204 842 q 1276 718 1276 769 q 1240 631 1276 667 q 1153 594 1204 594 q 1090 612 1119 594 q 1044 658 1061 629 l 457 658 l 457 425 l 603 425 l 603 569 l 1379 569 q 1406 606 1389 590 q 1444 630 1422 621 q 1489 639 1465 639 z "},"~":{"ha":446,"x_min":25,"x_max":419,"o":"m 413 388 l 418 342 l 254 306 l 194 293 l 192 292 l 192 349 l 32 349 l 26 394 l 192 431 l 250 443 l 254 444 l 254 388 l 413 388 z "}," ":{"ha":454,"x_min":0,"x_max":0,"o":""},"¢":{"ha":715,"x_min":68,"x_max":643,"o":"m 642 669 l 486 669 l 486 306 l 642 306 l 642 133 l 486 133 l 486 3 l 354 3 l 354 133 l 324 133 q 151 219 233 133 q 68 414 68 306 l 68 571 q 112 708 68 643 q 215 807 156 772 q 326 842 274 842 l 354 842 l 354 972 l 486 972 l 486 842 l 642 842 l 642 669 m 325 306 l 354 306 l 354 669 l 326 669 q 272 636 304 668 q 239 571 239 604 l 239 414 q 272 341 239 375 q 325 306 304 307 z "},"£":{"ha":788,"x_min":67,"x_max":725,"o":"m 467 778 q 412 743 444 775 q 379 678 379 711 l 379 489 l 536 489 l 536 317 l 379 317 l 379 168 l 725 168 l 725 -3 l 67 -3 l 67 168 l 208 168 l 208 317 l 67 317 l 67 489 l 208 489 l 208 678 q 234 785 208 733 q 299 872 260 838 q 383 928 339 907 q 467 949 428 949 l 725 949 l 725 778 l 467 778 z "},"¥":{"ha":826,"x_min":46,"x_max":782,"o":"m 499 469 l 499 415 l 679 415 l 679 300 l 499 300 l 499 238 l 679 238 l 679 167 l 499 167 l 499 -1 l 328 -1 l 328 167 l 139 167 l 139 238 l 328 238 l 328 300 l 139 300 l 139 415 l 328 415 l 328 469 l 46 951 l 222 951 l 414 625 l 604 951 l 782 951 l 499 469 z "},"©":{"ha":1089,"x_min":65,"x_max":1024,"o":"m 446 438 q 460 402 446 417 q 497 388 475 388 l 708 388 l 708 254 l 497 254 q 367 308 421 254 q 313 438 313 361 l 313 532 q 365 658 313 606 q 492 710 417 710 l 703 710 l 703 576 l 492 576 q 459 563 472 576 q 446 532 446 550 l 446 438 m 303 897 q 359 929 303 897 q 544 961 414 961 q 784 897 674 961 q 958 722 894 832 q 1022 483 1022 613 q 958 242 1022 353 q 784 67 894 132 q 544 3 674 3 q 303 67 414 3 q 129 242 193 132 q 65 483 65 353 q 129 722 65 613 q 303 897 193 832 m 300 238 q 351 187 300 238 q 544 136 401 136 q 789 238 688 136 q 890 482 890 339 q 789 726 890 625 q 544 828 688 828 q 300 726 401 828 q 199 482 199 625 q 300 238 199 339 z "},"­":{"ha":0,"x_min":0,"x_max":0,"o":""},"®":{"ha":1089,"x_min":65,"x_max":1024,"o":"m 743 594 q 685 478 743 521 l 746 313 l 604 313 l 503 583 l 599 583 q 610 594 610 583 l 610 660 q 606 671 610 667 q 594 675 601 675 l 475 675 l 475 313 l 342 313 l 342 808 l 594 808 q 700 765 657 808 q 743 660 743 721 l 743 594 m 303 975 q 359 1007 303 975 q 544 1039 414 1039 q 784 975 674 1039 q 958 801 894 911 q 1022 560 1022 690 q 958 320 1022 431 q 784 146 894 210 q 544 82 674 82 q 303 146 414 82 q 129 320 193 210 q 65 560 65 431 q 129 801 65 690 q 303 975 193 911 m 300 317 q 351 266 300 317 q 544 215 401 215 q 789 317 688 215 q 890 561 890 418 q 789 806 890 704 q 544 907 688 907 q 300 806 401 907 q 199 561 199 704 q 300 317 199 418 z "},"€":{"ha":744,"x_min":56,"x_max":682,"o":"m 681 782 l 439 782 q 392 710 418 763 q 349 603 365 658 l 488 603 l 488 499 l 335 499 l 335 454 q 336 429 335 443 l 486 429 l 486 325 l 357 325 q 396 233 374 275 q 435 175 418 192 l 681 175 l 681 4 l 419 4 q 317 54 367 4 q 234 175 267 104 q 182 325 201 246 l 57 325 l 57 429 l 165 429 q 164 454 164 443 l 164 499 l 57 499 l 57 603 l 175 603 q 210 722 186 663 q 265 835 233 782 q 338 920 296 888 q 422 953 379 953 l 681 953 l 681 782 z "}}}
